<?xml version="1.0" encoding="UTF-8"?>
<svg width="520" height="50" xmlns="http://www.w3.org/2000/svg">
  <rect x="0" y="0" width="20" height="50" fill="#cf6d4f"/>
  <rect x="20" y="0" width="20" height="50" fill="#d27051"/>
  <rect x="40" y="0" width="20" height="50" fill="#b87f53"/>
  <rect x="60" y="0" width="20" height="50" fill="#6c699f"/>
  <rect x="80" y="0" width="20" height="50" fill="#dc634d"/>
  <rect x="100" y="0" width="20" height="50" fill="#b04f4a"/>
  <rect x="120" y="0" width="20" height="50" fill="#d1732f"/>
  <rect x="140" y="0" width="20" height="50" fill="#b3821f"/>
  <rect x="160" y="0" width="20" height="50" fill="#469b60"/>
  <rect x="180" y="0" width="20" height="50" fill="#5a9591"/>
  <rect x="200" y="0" width="20" height="50" fill="#7d8da2"/>
  <rect x="220" y="0" width="20" height="50" fill="#4c6c94"/>
  <rect x="240" y="0" width="20" height="50" fill="#5e81ac"/>
  <rect x="260" y="0" width="20" height="50" fill="#7c79a9"/>
  <rect x="280" y="0" width="20" height="50" fill="#d8dee8"/>
  <rect x="300" y="0" width="20" height="50" fill="#ced5e3"/>
  <rect x="320" y="0" width="20" height="50" fill="#c5cddd"/>
  <rect x="340" y="0" width="20" height="50" fill="#b5bcce"/>
  <rect x="360" y="0" width="20" height="50" fill="#a4abc1"/>
  <rect x="380" y="0" width="20" height="50" fill="#939bb2"/>
  <rect x="400" y="0" width="20" height="50" fill="#838aa4"/>
  <rect x="420" y="0" width="20" height="50" fill="#727896"/>
  <rect x="440" y="0" width="20" height="50" fill="#636986"/>
  <rect x="460" y="0" width="20" height="50" fill="#5a616f"/>
  <rect x="480" y="0" width="20" height="50" fill="#4a5161"/>
  <rect x="500" y="0" width="20" height="50" fill="#3b4251"/>
</svg>