<?xml version="1.0" encoding="UTF-8"?>
<svg width="520" height="50" xmlns="http://www.w3.org/2000/svg">
  <rect x="0" y="0" width="20" height="50" fill="#f5e0dc"/>
  <rect x="20" y="0" width="20" height="50" fill="#f2cdcd"/>
  <rect x="40" y="0" width="20" height="50" fill="#f5c2e7"/>
  <rect x="60" y="0" width="20" height="50" fill="#cba6f7"/>
  <rect x="80" y="0" width="20" height="50" fill="#f38ba8"/>
  <rect x="100" y="0" width="20" height="50" fill="#eba0ac"/>
  <rect x="120" y="0" width="20" height="50" fill="#fab387"/>
  <rect x="140" y="0" width="20" height="50" fill="#f9e2af"/>
  <rect x="160" y="0" width="20" height="50" fill="#a6e3a1"/>
  <rect x="180" y="0" width="20" height="50" fill="#94e2d5"/>
  <rect x="200" y="0" width="20" height="50" fill="#89dceb"/>
  <rect x="220" y="0" width="20" height="50" fill="#74c7ec"/>
  <rect x="240" y="0" width="20" height="50" fill="#89b4fa"/>
  <rect x="260" y="0" width="20" height="50" fill="#b4befe"/>
  <rect x="280" y="0" width="20" height="50" fill="#f4f9e3"/>
  <rect x="300" y="0" width="20" height="50" fill="#e0e6d0"/>
  <rect x="320" y="0" width="20" height="50" fill="#ccd2bd"/>
  <rect x="340" y="0" width="20" height="50" fill="#9ea0b6"/>
  <rect x="360" y="0" width="20" height="50" fill="#8c8da3"/>
  <rect x="380" y="0" width="20" height="50" fill="#7a7b91"/>
  <rect x="400" y="0" width="20" height="50" fill="#686a7f"/>
  <rect x="420" y="0" width="20" height="50" fill="#58596d"/>
  <rect x="440" y="0" width="20" height="50" fill="#47495c"/>
  <rect x="460" y="0" width="20" height="50" fill="#292a3c"/>
  <rect x="480" y="0" width="20" height="50" fill="#303143"/>
  <rect x="500" y="0" width="20" height="50" fill="#38394c"/>
</svg>