<?xml version="1.0" encoding="UTF-8"?>
<svg width="520" height="50" xmlns="http://www.w3.org/2000/svg">
  <rect x="0" y="0" width="20" height="50" fill="#8f4e4c"/>
  <rect x="20" y="0" width="20" height="50" fill="#874542"/>
  <rect x="40" y="0" width="20" height="50" fill="#8e4561"/>
  <rect x="60" y="0" width="20" height="50" fill="#6b4a7f"/>
  <rect x="80" y="0" width="20" height="50" fill="#b43842"/>
  <rect x="100" y="0" width="20" height="50" fill="#a34246"/>
  <rect x="120" y="0" width="20" height="50" fill="#8f5524"/>
  <rect x="140" y="0" width="20" height="50" fill="#6e5715"/>
  <rect x="160" y="0" width="20" height="50" fill="#0c6b51"/>
  <rect x="180" y="0" width="20" height="50" fill="#18685a"/>
  <rect x="200" y="0" width="20" height="50" fill="#255b74"/>
  <rect x="220" y="0" width="20" height="50" fill="#066ca2"/>
  <rect x="240" y="0" width="20" height="50" fill="#386a8f"/>
  <rect x="260" y="0" width="20" height="50" fill="#715894"/>
  <rect x="280" y="0" width="20" height="50" fill="#e7dcb4"/>
  <rect x="300" y="0" width="20" height="50" fill="#ded2a6"/>
  <rect x="320" y="0" width="20" height="50" fill="#d6c897"/>
  <rect x="340" y="0" width="20" height="50" fill="#c5b57b"/>
  <rect x="360" y="0" width="20" height="50" fill="#b5a25e"/>
  <rect x="380" y="0" width="20" height="50" fill="#a48f3f"/>
  <rect x="400" y="0" width="20" height="50" fill="#947c16"/>
  <rect x="420" y="0" width="20" height="50" fill="#806b12"/>
  <rect x="440" y="0" width="20" height="50" fill="#6c5a0d"/>
  <rect x="460" y="0" width="20" height="50" fill="#2b2e34"/>
  <rect x="480" y="0" width="20" height="50" fill="#1e1f24"/>
  <rect x="500" y="0" width="20" height="50" fill="#111115"/>
</svg>